<mxfile host="app.diagrams.net" modified="2021-02-08T11:26:10.789Z" agent="5.0 (Windows NT 10.0; Win64; x64) AppleWebKit/537.36 (KHTML, like Gecko) Chrome/88.0.4324.150 Safari/537.36 Edg/88.0.705.63" etag="7u0mu7lpIgjLnm0ha4nM" version="14.2.9" type="github">
  <diagram id="w0jWqpOduRP_DTYvotxJ" name="Page-1">
    <mxGraphModel dx="3195" dy="2197" grid="1" gridSize="10" guides="1" tooltips="1" connect="1" arrows="1" fold="1" page="1" pageScale="1" pageWidth="1169" pageHeight="827" math="0" shadow="0">
      <root>
        <mxCell id="0" />
        <mxCell id="1" parent="0" />
        <mxCell id="_ANVthijb6fyCb5TBOQM-40" style="edgeStyle=orthogonalEdgeStyle;rounded=0;orthogonalLoop=1;jettySize=auto;html=1;entryX=-0.01;entryY=0.267;entryDx=0;entryDy=0;entryPerimeter=0;endArrow=openThin;endFill=0;" parent="1" source="_ANVthijb6fyCb5TBOQM-1" target="_ANVthijb6fyCb5TBOQM-20" edge="1">
          <mxGeometry relative="1" as="geometry" />
        </mxCell>
        <mxCell id="_ANVthijb6fyCb5TBOQM-1" value="ReviewController" style="swimlane;fontStyle=1;align=center;verticalAlign=top;childLayout=stackLayout;horizontal=1;startSize=40;horizontalStack=0;resizeParent=1;resizeParentMax=0;resizeLast=0;collapsible=1;marginBottom=0;" parent="1" vertex="1">
          <mxGeometry x="575" y="-110" width="440" height="180" as="geometry">
            <mxRectangle x="490" y="250" width="160" height="40" as="alternateBounds" />
          </mxGeometry>
        </mxCell>
        <mxCell id="_ANVthijb6fyCb5TBOQM-2" value="- instance: ReviewController" style="text;strokeColor=none;fillColor=none;align=left;verticalAlign=top;spacingLeft=4;spacingRight=4;overflow=hidden;rotatable=0;points=[[0,0.5],[1,0.5]];portConstraint=eastwest;" parent="_ANVthijb6fyCb5TBOQM-1" vertex="1">
          <mxGeometry y="40" width="440" height="26" as="geometry" />
        </mxCell>
        <mxCell id="_ANVthijb6fyCb5TBOQM-3" value="" style="line;strokeWidth=1;fillColor=none;align=left;verticalAlign=middle;spacingTop=-1;spacingLeft=3;spacingRight=3;rotatable=0;labelPosition=right;points=[];portConstraint=eastwest;" parent="_ANVthijb6fyCb5TBOQM-1" vertex="1">
          <mxGeometry y="66" width="440" height="8" as="geometry" />
        </mxCell>
        <mxCell id="_ANVthijb6fyCb5TBOQM-4" value="+ getInstance(): ReviewController&#xa;+ makeReview(ReviewBean reviewBean, PersonBean personBean): boolean&#xa;+ getDoneReviews(AccountBean accountBean): List&lt;Review&gt;&#xa;+ getReceivedReviews(AccountBean accountBean): List&lt;Review&gt;&#xa;+ calculateHostRating(PersonBean personBean): double&#xa;+ calculateGuestRating(PersonBean personBean): double" style="text;strokeColor=none;fillColor=none;align=left;verticalAlign=top;spacingLeft=4;spacingRight=4;overflow=hidden;rotatable=0;points=[[0,0.5],[1,0.5]];portConstraint=eastwest;" parent="_ANVthijb6fyCb5TBOQM-1" vertex="1">
          <mxGeometry y="74" width="440" height="106" as="geometry" />
        </mxCell>
        <mxCell id="s_rBKiH7ntkBGgYZegSy-26" style="edgeStyle=orthogonalEdgeStyle;rounded=0;orthogonalLoop=1;jettySize=auto;html=1;entryX=0;entryY=0.5;entryDx=0;entryDy=0;dashed=1;endArrow=none;endFill=0;exitX=0.75;exitY=0;exitDx=0;exitDy=0;" parent="1" source="_ANVthijb6fyCb5TBOQM-5" target="_ANVthijb6fyCb5TBOQM-21" edge="1">
          <mxGeometry relative="1" as="geometry" />
        </mxCell>
        <mxCell id="_ANVthijb6fyCb5TBOQM-5" value="ReviewHostViewController" style="swimlane;fontStyle=1;align=center;verticalAlign=top;childLayout=stackLayout;horizontal=1;startSize=40;horizontalStack=0;resizeParent=1;resizeParentMax=0;resizeLast=0;collapsible=1;marginBottom=0;" parent="1" vertex="1">
          <mxGeometry x="270" y="-110" width="190" height="130" as="geometry">
            <mxRectangle x="490" y="250" width="160" height="40" as="alternateBounds" />
          </mxGeometry>
        </mxCell>
        <mxCell id="_ANVthijb6fyCb5TBOQM-7" value="" style="line;strokeWidth=1;fillColor=none;align=left;verticalAlign=middle;spacingTop=-1;spacingLeft=3;spacingRight=3;rotatable=0;labelPosition=right;points=[];portConstraint=eastwest;" parent="_ANVthijb6fyCb5TBOQM-5" vertex="1">
          <mxGeometry y="40" width="190" height="8" as="geometry" />
        </mxCell>
        <mxCell id="_ANVthijb6fyCb5TBOQM-8" value="+ displayReviewsList()&#xa;+ displayReview()&#xa;+ makeReview()&#xa;" style="text;strokeColor=none;fillColor=none;align=left;verticalAlign=top;spacingLeft=4;spacingRight=4;overflow=hidden;rotatable=0;points=[[0,0.5],[1,0.5]];portConstraint=eastwest;" parent="_ANVthijb6fyCb5TBOQM-5" vertex="1">
          <mxGeometry y="48" width="190" height="82" as="geometry" />
        </mxCell>
        <mxCell id="DedbrwgwWlvZ-MwKUDXY-1" style="edgeStyle=orthogonalEdgeStyle;rounded=0;orthogonalLoop=1;jettySize=auto;html=1;entryX=0.501;entryY=1.005;entryDx=0;entryDy=0;entryPerimeter=0;" parent="1" source="_ANVthijb6fyCb5TBOQM-13" target="_ANVthijb6fyCb5TBOQM-4" edge="1">
          <mxGeometry relative="1" as="geometry" />
        </mxCell>
        <mxCell id="_ANVthijb6fyCb5TBOQM-13" value="Account" style="swimlane;fontStyle=1;align=center;verticalAlign=top;childLayout=stackLayout;horizontal=1;startSize=40;horizontalStack=0;resizeParent=1;resizeParentMax=0;resizeLast=0;collapsible=1;marginBottom=0;" parent="1" vertex="1">
          <mxGeometry x="665" y="300" width="260" height="370" as="geometry" />
        </mxCell>
        <mxCell id="_ANVthijb6fyCb5TBOQM-14" value="- CF: String&#xa;- name: String&#xa;- surname: String&#xa;- email: String&#xa;- password: String&#xa;- dateBirth: DateTime&#xa;- numberToken: Integer&#xa;" style="text;strokeColor=none;fillColor=none;align=left;verticalAlign=top;spacingLeft=4;spacingRight=4;overflow=hidden;rotatable=0;points=[[0,0.5],[1,0.5]];portConstraint=eastwest;" parent="_ANVthijb6fyCb5TBOQM-13" vertex="1">
          <mxGeometry y="40" width="260" height="110" as="geometry" />
        </mxCell>
        <mxCell id="_ANVthijb6fyCb5TBOQM-15" value="" style="line;strokeWidth=1;fillColor=none;align=left;verticalAlign=middle;spacingTop=-1;spacingLeft=3;spacingRight=3;rotatable=0;labelPosition=right;points=[];portConstraint=eastwest;" parent="_ANVthijb6fyCb5TBOQM-13" vertex="1">
          <mxGeometry y="150" width="260" height="8" as="geometry" />
        </mxCell>
        <mxCell id="_ANVthijb6fyCb5TBOQM-16" value="+ setName(String). void&#xa;+ getName(): String&#xa;+ setSurname(String): void&#xa;+ getSurname(): String&#xa;+ setCF(String): void&#xa;+ getCF(): String&#xa;+ setEmail(String): void&#xa;+ getEmail(): String&#xa;+ setPassword(String): voif&#xa;+ getPassword(): String&#xa;+ setDateBirth(DateTime): void&#xa;+ getDateBirth(): DateTime&#xa;+ setNumberToke(Integer): void&#xa;+ getNumberToken(): Integer" style="text;strokeColor=none;fillColor=none;align=left;verticalAlign=top;spacingLeft=4;spacingRight=4;overflow=hidden;rotatable=0;points=[[0,0.5],[1,0.5]];portConstraint=eastwest;" parent="_ANVthijb6fyCb5TBOQM-13" vertex="1">
          <mxGeometry y="158" width="260" height="212" as="geometry" />
        </mxCell>
        <mxCell id="_ANVthijb6fyCb5TBOQM-36" style="edgeStyle=orthogonalEdgeStyle;rounded=0;orthogonalLoop=1;jettySize=auto;html=1;entryX=0.501;entryY=1;entryDx=0;entryDy=0;entryPerimeter=0;endArrow=none;endFill=0;exitX=0.5;exitY=0;exitDx=0;exitDy=0;" parent="1" source="_ANVthijb6fyCb5TBOQM-17" target="_ANVthijb6fyCb5TBOQM-31" edge="1">
          <mxGeometry relative="1" as="geometry" />
        </mxCell>
        <mxCell id="_ANVthijb6fyCb5TBOQM-17" value="Review" style="swimlane;fontStyle=1;align=center;verticalAlign=top;childLayout=stackLayout;horizontal=1;startSize=40;horizontalStack=0;resizeParent=1;resizeParentMax=0;resizeLast=0;collapsible=1;marginBottom=0;" parent="1" vertex="1">
          <mxGeometry x="1190" y="-230" width="190" height="350" as="geometry" />
        </mxCell>
        <mxCell id="_ANVthijb6fyCb5TBOQM-18" value="- ID: Integer&#xa;- Title: String&#xa;- reviewer: Account&#xa;- reviewed: Person&#xa;- rating: Integer&#xa;- description: String&#xa;- tag: String" style="text;strokeColor=none;fillColor=none;align=left;verticalAlign=top;spacingLeft=4;spacingRight=4;overflow=hidden;rotatable=0;points=[[0,0.5],[1,0.5]];portConstraint=eastwest;" parent="_ANVthijb6fyCb5TBOQM-17" vertex="1">
          <mxGeometry y="40" width="190" height="110" as="geometry" />
        </mxCell>
        <mxCell id="_ANVthijb6fyCb5TBOQM-19" value="" style="line;strokeWidth=1;fillColor=none;align=left;verticalAlign=middle;spacingTop=-1;spacingLeft=3;spacingRight=3;rotatable=0;labelPosition=right;points=[];portConstraint=eastwest;" parent="_ANVthijb6fyCb5TBOQM-17" vertex="1">
          <mxGeometry y="150" width="190" height="8" as="geometry" />
        </mxCell>
        <mxCell id="_ANVthijb6fyCb5TBOQM-20" value="+ getID(): Integer&#xa;+ getTitle(): String&#xa;+ setTitle(String): void&#xa;+ getReviewer(): Account&#xa;+ setReviewer(Account): void&#xa;+ getReviewed(): Person&#xa;+ setReviewed(Person): void&#xa;+ getRating(): Integer&#xa;+ setRating(Integer): void&#xa;+ getDescription(): String&#xa;+ setDescription(String)&#xa;+ getTag(): String&#xa;+ setTag(String): void" style="text;strokeColor=none;fillColor=none;align=left;verticalAlign=top;spacingLeft=4;spacingRight=4;overflow=hidden;rotatable=0;points=[[0,0.5],[1,0.5]];portConstraint=eastwest;" parent="_ANVthijb6fyCb5TBOQM-17" vertex="1">
          <mxGeometry y="158" width="190" height="192" as="geometry" />
        </mxCell>
        <mxCell id="s_rBKiH7ntkBGgYZegSy-27" style="edgeStyle=orthogonalEdgeStyle;rounded=0;orthogonalLoop=1;jettySize=auto;html=1;entryX=0;entryY=0.5;entryDx=0;entryDy=0;dashed=1;endArrow=none;endFill=0;" parent="1" source="_ANVthijb6fyCb5TBOQM-21" target="_ANVthijb6fyCb5TBOQM-18" edge="1">
          <mxGeometry relative="1" as="geometry">
            <Array as="points">
              <mxPoint x="1150" y="-223" />
              <mxPoint x="1150" y="-140" />
            </Array>
          </mxGeometry>
        </mxCell>
        <mxCell id="DqvqKiWTQ68WOR9qXDBT-9" style="edgeStyle=orthogonalEdgeStyle;rounded=0;orthogonalLoop=1;jettySize=auto;html=1;endArrow=none;endFill=0;dashed=1;" parent="1" source="_ANVthijb6fyCb5TBOQM-21" target="DqvqKiWTQ68WOR9qXDBT-7" edge="1">
          <mxGeometry relative="1" as="geometry" />
        </mxCell>
        <mxCell id="DqvqKiWTQ68WOR9qXDBT-10" style="edgeStyle=orthogonalEdgeStyle;rounded=0;orthogonalLoop=1;jettySize=auto;html=1;exitX=0.5;exitY=1;exitDx=0;exitDy=0;entryX=0.5;entryY=0;entryDx=0;entryDy=0;dashed=1;endArrow=none;endFill=0;" parent="1" source="_ANVthijb6fyCb5TBOQM-21" target="_ANVthijb6fyCb5TBOQM-1" edge="1">
          <mxGeometry relative="1" as="geometry" />
        </mxCell>
        <mxCell id="_ANVthijb6fyCb5TBOQM-21" value="ReviewBean" style="swimlane;fontStyle=1;align=center;verticalAlign=top;childLayout=stackLayout;horizontal=1;startSize=26;horizontalStack=0;resizeParent=1;resizeParentMax=0;resizeLast=0;collapsible=1;marginBottom=0;" parent="1" vertex="1">
          <mxGeometry x="715" y="-240" width="160" height="34" as="geometry" />
        </mxCell>
        <mxCell id="_ANVthijb6fyCb5TBOQM-22" value="" style="line;strokeWidth=1;fillColor=none;align=left;verticalAlign=middle;spacingTop=-1;spacingLeft=3;spacingRight=3;rotatable=0;labelPosition=right;points=[];portConstraint=eastwest;" parent="_ANVthijb6fyCb5TBOQM-21" vertex="1">
          <mxGeometry y="26" width="160" height="8" as="geometry" />
        </mxCell>
        <mxCell id="_ANVthijb6fyCb5TBOQM-28" value="&lt;&lt;interface&gt;&gt;&#xa;ReviewDAO" style="swimlane;fontStyle=1;align=center;verticalAlign=top;childLayout=stackLayout;horizontal=1;startSize=40;horizontalStack=0;resizeParent=1;resizeParentMax=0;resizeLast=0;collapsible=1;marginBottom=0;" parent="1" vertex="1">
          <mxGeometry x="1205" y="-440" width="160" height="100" as="geometry">
            <mxRectangle x="490" y="250" width="160" height="40" as="alternateBounds" />
          </mxGeometry>
        </mxCell>
        <mxCell id="_ANVthijb6fyCb5TBOQM-29" value="+ field: type" style="text;strokeColor=none;fillColor=none;align=left;verticalAlign=top;spacingLeft=4;spacingRight=4;overflow=hidden;rotatable=0;points=[[0,0.5],[1,0.5]];portConstraint=eastwest;" parent="_ANVthijb6fyCb5TBOQM-28" vertex="1">
          <mxGeometry y="40" width="160" height="26" as="geometry" />
        </mxCell>
        <mxCell id="_ANVthijb6fyCb5TBOQM-30" value="" style="line;strokeWidth=1;fillColor=none;align=left;verticalAlign=middle;spacingTop=-1;spacingLeft=3;spacingRight=3;rotatable=0;labelPosition=right;points=[];portConstraint=eastwest;" parent="_ANVthijb6fyCb5TBOQM-28" vertex="1">
          <mxGeometry y="66" width="160" height="8" as="geometry" />
        </mxCell>
        <mxCell id="_ANVthijb6fyCb5TBOQM-31" value="+ method(type): type" style="text;strokeColor=none;fillColor=none;align=left;verticalAlign=top;spacingLeft=4;spacingRight=4;overflow=hidden;rotatable=0;points=[[0,0.5],[1,0.5]];portConstraint=eastwest;" parent="_ANVthijb6fyCb5TBOQM-28" vertex="1">
          <mxGeometry y="74" width="160" height="26" as="geometry" />
        </mxCell>
        <mxCell id="_ANVthijb6fyCb5TBOQM-39" style="edgeStyle=orthogonalEdgeStyle;rounded=0;orthogonalLoop=1;jettySize=auto;html=1;endArrow=blockThin;endFill=0;dashed=1;exitX=0.5;exitY=0;exitDx=0;exitDy=0;entryX=1;entryY=0.326;entryDx=0;entryDy=0;entryPerimeter=0;" parent="1" source="_ANVthijb6fyCb5TBOQM-28" target="TIgxn3nU5eMq8Se7UkAX-13" edge="1">
          <mxGeometry relative="1" as="geometry">
            <mxPoint x="1130" y="-500" as="targetPoint" />
            <Array as="points">
              <mxPoint x="1285" y="-507" />
            </Array>
          </mxGeometry>
        </mxCell>
        <mxCell id="_ANVthijb6fyCb5TBOQM-41" value="-reviews [1..*]" style="text;html=1;align=center;verticalAlign=middle;resizable=0;points=[];autosize=1;" parent="1" vertex="1">
          <mxGeometry x="1045" y="-40" width="90" height="20" as="geometry" />
        </mxCell>
        <mxCell id="_ANVthijb6fyCb5TBOQM-46" style="edgeStyle=orthogonalEdgeStyle;rounded=0;orthogonalLoop=1;jettySize=auto;html=1;entryX=0;entryY=0.5;entryDx=0;entryDy=0;endArrow=none;endFill=0;" parent="1" target="_ANVthijb6fyCb5TBOQM-2" edge="1">
          <mxGeometry relative="1" as="geometry">
            <mxPoint x="460" y="-57" as="sourcePoint" />
          </mxGeometry>
        </mxCell>
        <mxCell id="_ANVthijb6fyCb5TBOQM-47" value="Person" style="swimlane;fontStyle=1;align=center;verticalAlign=top;childLayout=stackLayout;horizontal=1;startSize=40;horizontalStack=0;resizeParent=1;resizeParentMax=0;resizeLast=0;collapsible=1;marginBottom=0;" parent="1" vertex="1">
          <mxGeometry x="1500" y="-260" width="200" height="370" as="geometry" />
        </mxCell>
        <mxCell id="_ANVthijb6fyCb5TBOQM-48" value="- ID: Integer&#xa;- username: String&#xa;- studyGrade: String&#xa;- school: String&#xa;- account: Account&#xa;- hostRating: Double&#xa;- guestRating: Double" style="text;strokeColor=none;fillColor=none;align=left;verticalAlign=top;spacingLeft=4;spacingRight=4;overflow=hidden;rotatable=0;points=[[0,0.5],[1,0.5]];portConstraint=eastwest;" parent="_ANVthijb6fyCb5TBOQM-47" vertex="1">
          <mxGeometry y="40" width="200" height="110" as="geometry" />
        </mxCell>
        <mxCell id="_ANVthijb6fyCb5TBOQM-49" value="" style="line;strokeWidth=1;fillColor=none;align=left;verticalAlign=middle;spacingTop=-1;spacingLeft=3;spacingRight=3;rotatable=0;labelPosition=right;points=[];portConstraint=eastwest;" parent="_ANVthijb6fyCb5TBOQM-47" vertex="1">
          <mxGeometry y="150" width="200" height="8" as="geometry" />
        </mxCell>
        <mxCell id="_ANVthijb6fyCb5TBOQM-50" value="+ setID(Integer): void&#xa;+ getID(): Integer&#xa;+ setUsername(String): void&#xa;+ getUsername(): String&#xa;+ setStudyGrade(String): void&#xa;+ getStudyGrade(): String&#xa;+ setSchool(String): void&#xa;+ getSchool(): String&#xa;+ setAccount(Account): void&#xa;+ getAccount(): Account&#xa;+ setHostRating(Float): void&#xa;+ getHostRating(): Float&#xa;+ setGuestRating(Float): void&#xa;+ getGuestRating(): Float" style="text;strokeColor=none;fillColor=none;align=left;verticalAlign=top;spacingLeft=4;spacingRight=4;overflow=hidden;rotatable=0;points=[[0,0.5],[1,0.5]];portConstraint=eastwest;" parent="_ANVthijb6fyCb5TBOQM-47" vertex="1">
          <mxGeometry y="158" width="200" height="212" as="geometry" />
        </mxCell>
        <mxCell id="_ANVthijb6fyCb5TBOQM-56" style="edgeStyle=orthogonalEdgeStyle;rounded=0;orthogonalLoop=1;jettySize=auto;html=1;entryX=0.5;entryY=0;entryDx=0;entryDy=0;endArrow=none;endFill=0;exitX=0.5;exitY=1.02;exitDx=0;exitDy=0;exitPerimeter=0;" parent="1" source="_ANVthijb6fyCb5TBOQM-55" target="_ANVthijb6fyCb5TBOQM-47" edge="1">
          <mxGeometry relative="1" as="geometry" />
        </mxCell>
        <mxCell id="_ANVthijb6fyCb5TBOQM-52" value="&lt;&lt;interface&gt;&gt;&#xa;PersonDAO" style="swimlane;fontStyle=1;align=center;verticalAlign=top;childLayout=stackLayout;horizontal=1;startSize=40;horizontalStack=0;resizeParent=1;resizeParentMax=0;resizeLast=0;collapsible=1;marginBottom=0;" parent="1" vertex="1">
          <mxGeometry x="1520" y="-440" width="160" height="100" as="geometry">
            <mxRectangle x="490" y="250" width="160" height="40" as="alternateBounds" />
          </mxGeometry>
        </mxCell>
        <mxCell id="_ANVthijb6fyCb5TBOQM-53" value="+ field: type" style="text;strokeColor=none;fillColor=none;align=left;verticalAlign=top;spacingLeft=4;spacingRight=4;overflow=hidden;rotatable=0;points=[[0,0.5],[1,0.5]];portConstraint=eastwest;" parent="_ANVthijb6fyCb5TBOQM-52" vertex="1">
          <mxGeometry y="40" width="160" height="26" as="geometry" />
        </mxCell>
        <mxCell id="_ANVthijb6fyCb5TBOQM-54" value="" style="line;strokeWidth=1;fillColor=none;align=left;verticalAlign=middle;spacingTop=-1;spacingLeft=3;spacingRight=3;rotatable=0;labelPosition=right;points=[];portConstraint=eastwest;" parent="_ANVthijb6fyCb5TBOQM-52" vertex="1">
          <mxGeometry y="66" width="160" height="8" as="geometry" />
        </mxCell>
        <mxCell id="_ANVthijb6fyCb5TBOQM-55" value="+ method(type): type" style="text;strokeColor=none;fillColor=none;align=left;verticalAlign=top;spacingLeft=4;spacingRight=4;overflow=hidden;rotatable=0;points=[[0,0.5],[1,0.5]];portConstraint=eastwest;" parent="_ANVthijb6fyCb5TBOQM-52" vertex="1">
          <mxGeometry y="74" width="160" height="26" as="geometry" />
        </mxCell>
        <mxCell id="_ANVthijb6fyCb5TBOQM-62" style="edgeStyle=orthogonalEdgeStyle;rounded=0;orthogonalLoop=1;jettySize=auto;html=1;endArrow=blockThin;endFill=0;dashed=1;exitX=0.5;exitY=0;exitDx=0;exitDy=0;entryX=0.003;entryY=0.345;entryDx=0;entryDy=0;entryPerimeter=0;" parent="1" source="_ANVthijb6fyCb5TBOQM-52" target="TIgxn3nU5eMq8Se7UkAX-5" edge="1">
          <mxGeometry relative="1" as="geometry">
            <mxPoint x="1190" y="-760" as="sourcePoint" />
            <mxPoint x="1600" y="-500.052" as="targetPoint" />
          </mxGeometry>
        </mxCell>
        <mxCell id="_ANVthijb6fyCb5TBOQM-64" value="-reviewPerson" style="text;html=1;align=center;verticalAlign=middle;resizable=0;points=[];autosize=1;" parent="1" vertex="1">
          <mxGeometry x="1395" y="-90" width="90" height="20" as="geometry" />
        </mxCell>
        <mxCell id="s_rBKiH7ntkBGgYZegSy-1" value="&lt;&lt;interface&gt;&gt;&#xa;AccountDAO" style="swimlane;fontStyle=1;align=center;verticalAlign=top;childLayout=stackLayout;horizontal=1;startSize=40;horizontalStack=0;resizeParent=1;resizeParentMax=0;resizeLast=0;collapsible=1;marginBottom=0;" parent="1" vertex="1">
          <mxGeometry x="360" y="440" width="160" height="100" as="geometry">
            <mxRectangle x="490" y="250" width="160" height="40" as="alternateBounds" />
          </mxGeometry>
        </mxCell>
        <mxCell id="s_rBKiH7ntkBGgYZegSy-2" value="+ field: type" style="text;strokeColor=none;fillColor=none;align=left;verticalAlign=top;spacingLeft=4;spacingRight=4;overflow=hidden;rotatable=0;points=[[0,0.5],[1,0.5]];portConstraint=eastwest;" parent="s_rBKiH7ntkBGgYZegSy-1" vertex="1">
          <mxGeometry y="40" width="160" height="26" as="geometry" />
        </mxCell>
        <mxCell id="s_rBKiH7ntkBGgYZegSy-3" value="" style="line;strokeWidth=1;fillColor=none;align=left;verticalAlign=middle;spacingTop=-1;spacingLeft=3;spacingRight=3;rotatable=0;labelPosition=right;points=[];portConstraint=eastwest;" parent="s_rBKiH7ntkBGgYZegSy-1" vertex="1">
          <mxGeometry y="66" width="160" height="8" as="geometry" />
        </mxCell>
        <mxCell id="s_rBKiH7ntkBGgYZegSy-4" value="+ method(type): type" style="text;strokeColor=none;fillColor=none;align=left;verticalAlign=top;spacingLeft=4;spacingRight=4;overflow=hidden;rotatable=0;points=[[0,0.5],[1,0.5]];portConstraint=eastwest;" parent="s_rBKiH7ntkBGgYZegSy-1" vertex="1">
          <mxGeometry y="74" width="160" height="26" as="geometry" />
        </mxCell>
        <mxCell id="s_rBKiH7ntkBGgYZegSy-9" style="edgeStyle=orthogonalEdgeStyle;rounded=0;orthogonalLoop=1;jettySize=auto;html=1;endArrow=blockThin;endFill=0;dashed=1;exitX=0.5;exitY=0;exitDx=0;exitDy=0;entryX=0.499;entryY=0.995;entryDx=0;entryDy=0;entryPerimeter=0;" parent="1" source="s_rBKiH7ntkBGgYZegSy-1" target="TIgxn3nU5eMq8Se7UkAX-18" edge="1">
          <mxGeometry relative="1" as="geometry">
            <mxPoint x="850" y="477.04999999999995" as="sourcePoint" />
            <mxPoint x="440" y="390.98800000000006" as="targetPoint" />
          </mxGeometry>
        </mxCell>
        <mxCell id="s_rBKiH7ntkBGgYZegSy-10" style="edgeStyle=orthogonalEdgeStyle;rounded=0;orthogonalLoop=1;jettySize=auto;html=1;entryX=0.5;entryY=1;entryDx=0;entryDy=0;entryPerimeter=0;endArrow=none;endFill=0;" parent="1" source="_ANVthijb6fyCb5TBOQM-16" target="s_rBKiH7ntkBGgYZegSy-4" edge="1">
          <mxGeometry relative="1" as="geometry">
            <mxPoint x="990" y="666" as="targetPoint" />
          </mxGeometry>
        </mxCell>
        <mxCell id="s_rBKiH7ntkBGgYZegSy-13" value="-account [1,1]" style="text;html=1;align=center;verticalAlign=middle;resizable=0;points=[];autosize=1;" parent="1" vertex="1">
          <mxGeometry x="800" y="200" width="90" height="20" as="geometry" />
        </mxCell>
        <mxCell id="s_rBKiH7ntkBGgYZegSy-14" value="" style="endArrow=open;html=1;endSize=12;startArrow=diamondThin;startSize=14;startFill=1;edgeStyle=orthogonalEdgeStyle;align=left;verticalAlign=bottom;entryX=1.001;entryY=0.038;entryDx=0;entryDy=0;entryPerimeter=0;" parent="1" target="_ANVthijb6fyCb5TBOQM-20" edge="1">
          <mxGeometry x="-1" y="3" relative="1" as="geometry">
            <mxPoint x="1500" y="-64" as="sourcePoint" />
            <mxPoint x="900" y="-280" as="targetPoint" />
            <Array as="points" />
          </mxGeometry>
        </mxCell>
        <mxCell id="s_rBKiH7ntkBGgYZegSy-15" value="Reservation" style="swimlane;fontStyle=1;align=center;verticalAlign=top;childLayout=stackLayout;horizontal=1;startSize=40;horizontalStack=0;resizeParent=1;resizeParentMax=0;resizeLast=0;collapsible=1;marginBottom=0;" parent="1" vertex="1">
          <mxGeometry x="1175" y="300" width="220" height="370" as="geometry" />
        </mxCell>
        <mxCell id="s_rBKiH7ntkBGgYZegSy-16" value="- ID: Integer&#xa;- date: DateTime&#xa;- startTime: Time&#xa;- endTime: Time&#xa;- reservingUser: Account&#xa;- linkedRoom: Room&#xa;- roomOwner: Person" style="text;strokeColor=none;fillColor=none;align=left;verticalAlign=top;spacingLeft=4;spacingRight=4;overflow=hidden;rotatable=0;points=[[0,0.5],[1,0.5]];portConstraint=eastwest;" parent="s_rBKiH7ntkBGgYZegSy-15" vertex="1">
          <mxGeometry y="40" width="220" height="110" as="geometry" />
        </mxCell>
        <mxCell id="s_rBKiH7ntkBGgYZegSy-17" value="" style="line;strokeWidth=1;fillColor=none;align=left;verticalAlign=middle;spacingTop=-1;spacingLeft=3;spacingRight=3;rotatable=0;labelPosition=right;points=[];portConstraint=eastwest;" parent="s_rBKiH7ntkBGgYZegSy-15" vertex="1">
          <mxGeometry y="150" width="220" height="8" as="geometry" />
        </mxCell>
        <mxCell id="s_rBKiH7ntkBGgYZegSy-18" value="+ setID(Integer): void &#xa;+ getID(): Integer&#xa;+ setDate(DateTime): void&#xa;+ getDate(): DateTime&#xa;+ setStartTime(Time): void&#xa;+ getStartTime(): Time&#xa;+ setEndTime(Time): void&#xa;+ getEndTime(): Time&#xa;+ setReservingUser(Account): void&#xa;+ getReservingUser(): Account&#xa;+ setLinkedRoom(Room): void&#xa;+ getLinkedRoom(): Room&#xa;+ getRoomOwner(): Person&#xa;+ setRoomOwner(Person): void&#xa;" style="text;strokeColor=none;fillColor=none;align=left;verticalAlign=top;spacingLeft=4;spacingRight=4;overflow=hidden;rotatable=0;points=[[0,0.5],[1,0.5]];portConstraint=eastwest;" parent="s_rBKiH7ntkBGgYZegSy-15" vertex="1">
          <mxGeometry y="158" width="220" height="212" as="geometry" />
        </mxCell>
        <mxCell id="s_rBKiH7ntkBGgYZegSy-20" style="edgeStyle=orthogonalEdgeStyle;rounded=0;orthogonalLoop=1;jettySize=auto;html=1;entryX=0.25;entryY=0;entryDx=0;entryDy=0;endArrow=none;endFill=0;exitX=0.852;exitY=1.004;exitDx=0;exitDy=0;exitPerimeter=0;" parent="1" source="_ANVthijb6fyCb5TBOQM-4" target="s_rBKiH7ntkBGgYZegSy-15" edge="1">
          <mxGeometry relative="1" as="geometry">
            <mxPoint x="920" y="180" as="sourcePoint" />
            <mxPoint x="560" y="195.08999999999997" as="targetPoint" />
          </mxGeometry>
        </mxCell>
        <mxCell id="s_rBKiH7ntkBGgYZegSy-21" value="-reservations[1,*]" style="text;html=1;align=center;verticalAlign=middle;resizable=0;points=[];autosize=1;" parent="1" vertex="1">
          <mxGeometry x="950" y="120" width="110" height="20" as="geometry" />
        </mxCell>
        <mxCell id="s_rBKiH7ntkBGgYZegSy-34" value="" style="endArrow=open;html=1;endSize=12;startArrow=diamondThin;startSize=14;startFill=0;edgeStyle=orthogonalEdgeStyle;align=left;verticalAlign=bottom;entryX=-0.006;entryY=0.338;entryDx=0;entryDy=0;entryPerimeter=0;" parent="1" target="s_rBKiH7ntkBGgYZegSy-18" edge="1">
          <mxGeometry x="-1" y="3" relative="1" as="geometry">
            <mxPoint x="926" y="530" as="sourcePoint" />
            <mxPoint x="1110" y="570" as="targetPoint" />
            <Array as="points">
              <mxPoint x="980" y="530" />
            </Array>
          </mxGeometry>
        </mxCell>
        <mxCell id="s_rBKiH7ntkBGgYZegSy-35" value="accountReservations [1,*]" style="text;html=1;align=center;verticalAlign=middle;resizable=0;points=[];autosize=1;" parent="1" vertex="1">
          <mxGeometry x="970" y="510" width="150" height="20" as="geometry" />
        </mxCell>
        <mxCell id="s_rBKiH7ntkBGgYZegSy-36" value="&lt;&lt;interface&gt;&gt;&#xa;ReservationDAO" style="swimlane;fontStyle=1;align=center;verticalAlign=top;childLayout=stackLayout;horizontal=1;startSize=40;horizontalStack=0;resizeParent=1;resizeParentMax=0;resizeLast=0;collapsible=1;marginBottom=0;" parent="1" vertex="1">
          <mxGeometry x="1560" y="480" width="160" height="100" as="geometry">
            <mxRectangle x="490" y="250" width="160" height="40" as="alternateBounds" />
          </mxGeometry>
        </mxCell>
        <mxCell id="s_rBKiH7ntkBGgYZegSy-37" value="+ field: type" style="text;strokeColor=none;fillColor=none;align=left;verticalAlign=top;spacingLeft=4;spacingRight=4;overflow=hidden;rotatable=0;points=[[0,0.5],[1,0.5]];portConstraint=eastwest;" parent="s_rBKiH7ntkBGgYZegSy-36" vertex="1">
          <mxGeometry y="40" width="160" height="26" as="geometry" />
        </mxCell>
        <mxCell id="s_rBKiH7ntkBGgYZegSy-38" value="" style="line;strokeWidth=1;fillColor=none;align=left;verticalAlign=middle;spacingTop=-1;spacingLeft=3;spacingRight=3;rotatable=0;labelPosition=right;points=[];portConstraint=eastwest;" parent="s_rBKiH7ntkBGgYZegSy-36" vertex="1">
          <mxGeometry y="66" width="160" height="8" as="geometry" />
        </mxCell>
        <mxCell id="s_rBKiH7ntkBGgYZegSy-39" value="+ method(type): type" style="text;strokeColor=none;fillColor=none;align=left;verticalAlign=top;spacingLeft=4;spacingRight=4;overflow=hidden;rotatable=0;points=[[0,0.5],[1,0.5]];portConstraint=eastwest;" parent="s_rBKiH7ntkBGgYZegSy-36" vertex="1">
          <mxGeometry y="74" width="160" height="26" as="geometry" />
        </mxCell>
        <mxCell id="s_rBKiH7ntkBGgYZegSy-44" style="edgeStyle=orthogonalEdgeStyle;rounded=0;orthogonalLoop=1;jettySize=auto;html=1;entryX=0.5;entryY=1;entryDx=0;entryDy=0;entryPerimeter=0;endArrow=none;endFill=0;exitX=1;exitY=0.5;exitDx=0;exitDy=0;" parent="1" source="s_rBKiH7ntkBGgYZegSy-18" target="s_rBKiH7ntkBGgYZegSy-39" edge="1">
          <mxGeometry relative="1" as="geometry">
            <mxPoint x="1400" y="610" as="sourcePoint" />
            <Array as="points">
              <mxPoint x="1395" y="610" />
              <mxPoint x="1640" y="610" />
            </Array>
          </mxGeometry>
        </mxCell>
        <mxCell id="DqvqKiWTQ68WOR9qXDBT-8" style="edgeStyle=orthogonalEdgeStyle;rounded=0;orthogonalLoop=1;jettySize=auto;html=1;entryX=0.5;entryY=0;entryDx=0;entryDy=0;endArrow=none;endFill=0;" parent="1" source="DqvqKiWTQ68WOR9qXDBT-5" target="_ANVthijb6fyCb5TBOQM-5" edge="1">
          <mxGeometry relative="1" as="geometry" />
        </mxCell>
        <mxCell id="DqvqKiWTQ68WOR9qXDBT-5" value="ReviewHostView" style="swimlane;fontStyle=1;align=center;verticalAlign=top;childLayout=stackLayout;horizontal=1;startSize=40;horizontalStack=0;resizeParent=1;resizeParentMax=0;resizeLast=0;collapsible=1;marginBottom=0;" parent="1" vertex="1">
          <mxGeometry x="270" y="-410" width="190" height="130" as="geometry">
            <mxRectangle x="490" y="250" width="160" height="40" as="alternateBounds" />
          </mxGeometry>
        </mxCell>
        <mxCell id="DqvqKiWTQ68WOR9qXDBT-6" value="" style="line;strokeWidth=1;fillColor=none;align=left;verticalAlign=middle;spacingTop=-1;spacingLeft=3;spacingRight=3;rotatable=0;labelPosition=right;points=[];portConstraint=eastwest;" parent="DqvqKiWTQ68WOR9qXDBT-5" vertex="1">
          <mxGeometry y="40" width="190" height="8" as="geometry" />
        </mxCell>
        <mxCell id="DqvqKiWTQ68WOR9qXDBT-7" value="+ &#xa;" style="text;strokeColor=none;fillColor=none;align=left;verticalAlign=top;spacingLeft=4;spacingRight=4;overflow=hidden;rotatable=0;points=[[0,0.5],[1,0.5]];portConstraint=eastwest;" parent="DqvqKiWTQ68WOR9qXDBT-5" vertex="1">
          <mxGeometry y="48" width="190" height="82" as="geometry" />
        </mxCell>
        <mxCell id="TIgxn3nU5eMq8Se7UkAX-2" value="PersonDAOImpl" style="swimlane;fontStyle=1;align=center;verticalAlign=top;childLayout=stackLayout;horizontal=1;startSize=40;horizontalStack=0;resizeParent=1;resizeParentMax=0;resizeLast=0;collapsible=1;marginBottom=0;" vertex="1" parent="1">
          <mxGeometry x="1740" y="-640" width="320" height="240" as="geometry">
            <mxRectangle x="490" y="250" width="160" height="40" as="alternateBounds" />
          </mxGeometry>
        </mxCell>
        <mxCell id="TIgxn3nU5eMq8Se7UkAX-3" value="+ instance: PersonDAOImpl" style="text;strokeColor=none;fillColor=none;align=left;verticalAlign=top;spacingLeft=4;spacingRight=4;overflow=hidden;rotatable=0;points=[[0,0.5],[1,0.5]];portConstraint=eastwest;" vertex="1" parent="TIgxn3nU5eMq8Se7UkAX-2">
          <mxGeometry y="40" width="320" height="26" as="geometry" />
        </mxCell>
        <mxCell id="TIgxn3nU5eMq8Se7UkAX-4" value="" style="line;strokeWidth=1;fillColor=none;align=left;verticalAlign=middle;spacingTop=-1;spacingLeft=3;spacingRight=3;rotatable=0;labelPosition=right;points=[];portConstraint=eastwest;" vertex="1" parent="TIgxn3nU5eMq8Se7UkAX-2">
          <mxGeometry y="66" width="320" height="8" as="geometry" />
        </mxCell>
        <mxCell id="TIgxn3nU5eMq8Se7UkAX-5" value="+ getInstance(): PersonDAOImpl&#xa;+ createPerson(PersonBean): Integer&#xa;+ removePerson(PersonBean): Integer&#xa;+ getPersonId(PersonBean): Integer&#xa;+ getAllPersons(): List&lt;PersonBean&gt;&#xa;+ updateGuestRating(PersonBean): Integer&#xa;+ updateHostRating(PersonBean): Integer&#xa;+ getPerson(PersonBean): PersonBean&#xa;+ getPersonByUsername(PersonBean): PersonBean&#xa;+ getPersonFromAccount(AccountBean): PersonBean&#xa;+ getGroupParticipants(GroupBean): List&lt;PersonBean&gt;" style="text;strokeColor=none;fillColor=none;align=left;verticalAlign=top;spacingLeft=4;spacingRight=4;overflow=hidden;rotatable=0;points=[[0,0.5],[1,0.5]];portConstraint=eastwest;" vertex="1" parent="TIgxn3nU5eMq8Se7UkAX-2">
          <mxGeometry y="74" width="320" height="166" as="geometry" />
        </mxCell>
        <mxCell id="TIgxn3nU5eMq8Se7UkAX-6" value="ReservationDAOImpl" style="swimlane;fontStyle=1;align=center;verticalAlign=top;childLayout=stackLayout;horizontal=1;startSize=40;horizontalStack=0;resizeParent=1;resizeParentMax=0;resizeLast=0;collapsible=1;marginBottom=0;" vertex="1" parent="1">
          <mxGeometry x="1460" y="180" width="380" height="200" as="geometry">
            <mxRectangle x="490" y="250" width="160" height="40" as="alternateBounds" />
          </mxGeometry>
        </mxCell>
        <mxCell id="TIgxn3nU5eMq8Se7UkAX-7" value="+ instance: ReservationDAOImpl" style="text;strokeColor=none;fillColor=none;align=left;verticalAlign=top;spacingLeft=4;spacingRight=4;overflow=hidden;rotatable=0;points=[[0,0.5],[1,0.5]];portConstraint=eastwest;" vertex="1" parent="TIgxn3nU5eMq8Se7UkAX-6">
          <mxGeometry y="40" width="380" height="26" as="geometry" />
        </mxCell>
        <mxCell id="TIgxn3nU5eMq8Se7UkAX-8" value="" style="line;strokeWidth=1;fillColor=none;align=left;verticalAlign=middle;spacingTop=-1;spacingLeft=3;spacingRight=3;rotatable=0;labelPosition=right;points=[];portConstraint=eastwest;" vertex="1" parent="TIgxn3nU5eMq8Se7UkAX-6">
          <mxGeometry y="66" width="380" height="8" as="geometry" />
        </mxCell>
        <mxCell id="TIgxn3nU5eMq8Se7UkAX-9" value="+ getInstance(): ReservationDAOImpl&#xa;+ createReservation(ReservationBean): Integer&#xa;+ removeReservation(ReservationBean): Integer&#xa;+ getReservationId(ReservationBean): Integer&#xa;+ getAllAccountReservations(AccountBean): List&lt;ReservationBean&gt;&#xa;+ getAllReservations(): List&lt;ReservationBean&gt;&#xa;+ getReservation(ReservationBean): ReservationBean&#xa;+ getRoomReservations(RoomBean) List&lt;ReservationBean&gt;" style="text;strokeColor=none;fillColor=none;align=left;verticalAlign=top;spacingLeft=4;spacingRight=4;overflow=hidden;rotatable=0;points=[[0,0.5],[1,0.5]];portConstraint=eastwest;" vertex="1" parent="TIgxn3nU5eMq8Se7UkAX-6">
          <mxGeometry y="74" width="380" height="126" as="geometry" />
        </mxCell>
        <mxCell id="TIgxn3nU5eMq8Se7UkAX-10" value="ReviewDAOImpl" style="swimlane;fontStyle=1;align=center;verticalAlign=top;childLayout=stackLayout;horizontal=1;startSize=40;horizontalStack=0;resizeParent=1;resizeParentMax=0;resizeLast=0;collapsible=1;marginBottom=0;" vertex="1" parent="1">
          <mxGeometry x="760" y="-625" width="360" height="210" as="geometry">
            <mxRectangle x="490" y="250" width="160" height="40" as="alternateBounds" />
          </mxGeometry>
        </mxCell>
        <mxCell id="TIgxn3nU5eMq8Se7UkAX-11" value="+ instance: ReviewDAOImpl" style="text;strokeColor=none;fillColor=none;align=left;verticalAlign=top;spacingLeft=4;spacingRight=4;overflow=hidden;rotatable=0;points=[[0,0.5],[1,0.5]];portConstraint=eastwest;" vertex="1" parent="TIgxn3nU5eMq8Se7UkAX-10">
          <mxGeometry y="40" width="360" height="26" as="geometry" />
        </mxCell>
        <mxCell id="TIgxn3nU5eMq8Se7UkAX-12" value="" style="line;strokeWidth=1;fillColor=none;align=left;verticalAlign=middle;spacingTop=-1;spacingLeft=3;spacingRight=3;rotatable=0;labelPosition=right;points=[];portConstraint=eastwest;" vertex="1" parent="TIgxn3nU5eMq8Se7UkAX-10">
          <mxGeometry y="66" width="360" height="8" as="geometry" />
        </mxCell>
        <mxCell id="TIgxn3nU5eMq8Se7UkAX-13" value="+ getInstance(): ReviewDAOImpl&#xa;+ createReview(ReviewBean): Integer&#xa;+ removeReview(ReviewBean): Integer&#xa;+ getReviewId(ReviewBean): Integer &#xa;+ getAllReceivedReviews(PersonBean): List&lt;ReviewBean&gt;&#xa;+ getAllWrittenReviews(AccountBean): List&lt;ReviewBean&gt;&#xa;+ getAllReviews(): List&lt;ReviewBean&gt;&#xa;+ getAllPersonReviewsAsGuest(PersonBean): List&lt;ReviewBean&gt;&#xa;+ getAllPersonReviewsAsHost(PersonBean): List&lt;ReviewBean&gt;" style="text;strokeColor=none;fillColor=none;align=left;verticalAlign=top;spacingLeft=4;spacingRight=4;overflow=hidden;rotatable=0;points=[[0,0.5],[1,0.5]];portConstraint=eastwest;" vertex="1" parent="TIgxn3nU5eMq8Se7UkAX-10">
          <mxGeometry y="74" width="360" height="136" as="geometry" />
        </mxCell>
        <mxCell id="TIgxn3nU5eMq8Se7UkAX-15" value="AccountDAOImpl" style="swimlane;fontStyle=1;align=center;verticalAlign=top;childLayout=stackLayout;horizontal=1;startSize=40;horizontalStack=0;resizeParent=1;resizeParentMax=0;resizeLast=0;collapsible=1;marginBottom=0;" vertex="1" parent="1">
          <mxGeometry x="305" y="160" width="270" height="200" as="geometry">
            <mxRectangle x="490" y="250" width="160" height="40" as="alternateBounds" />
          </mxGeometry>
        </mxCell>
        <mxCell id="TIgxn3nU5eMq8Se7UkAX-16" value="+ instance: AccountDAOImpl" style="text;strokeColor=none;fillColor=none;align=left;verticalAlign=top;spacingLeft=4;spacingRight=4;overflow=hidden;rotatable=0;points=[[0,0.5],[1,0.5]];portConstraint=eastwest;" vertex="1" parent="TIgxn3nU5eMq8Se7UkAX-15">
          <mxGeometry y="40" width="270" height="26" as="geometry" />
        </mxCell>
        <mxCell id="TIgxn3nU5eMq8Se7UkAX-17" value="" style="line;strokeWidth=1;fillColor=none;align=left;verticalAlign=middle;spacingTop=-1;spacingLeft=3;spacingRight=3;rotatable=0;labelPosition=right;points=[];portConstraint=eastwest;" vertex="1" parent="TIgxn3nU5eMq8Se7UkAX-15">
          <mxGeometry y="66" width="270" height="8" as="geometry" />
        </mxCell>
        <mxCell id="TIgxn3nU5eMq8Se7UkAX-18" value="+ getInstance(): AccountDAOImpl&#xa;+ createAccount(AccountBean): Integer&#xa;+ removeAccount(AccountBean): Integer&#xa;+ getNumberToken(AccountBean): Integer&#xa;+ updateNumberToken(AccountBean): Integer&#xa;+ getAllAccounts(): List&lt;AccountBean&gt;&#xa;+ getAccount(AccountBean): AccountBean&#xa;+ login(AccountBean): AccountBean" style="text;strokeColor=none;fillColor=none;align=left;verticalAlign=top;spacingLeft=4;spacingRight=4;overflow=hidden;rotatable=0;points=[[0,0.5],[1,0.5]];portConstraint=eastwest;" vertex="1" parent="TIgxn3nU5eMq8Se7UkAX-15">
          <mxGeometry y="74" width="270" height="126" as="geometry" />
        </mxCell>
        <mxCell id="TIgxn3nU5eMq8Se7UkAX-19" style="edgeStyle=orthogonalEdgeStyle;rounded=0;orthogonalLoop=1;jettySize=auto;html=1;endArrow=blockThin;endFill=0;dashed=1;exitX=0.5;exitY=0;exitDx=0;exitDy=0;entryX=0.471;entryY=1;entryDx=0;entryDy=0;entryPerimeter=0;" edge="1" parent="1" source="s_rBKiH7ntkBGgYZegSy-36" target="TIgxn3nU5eMq8Se7UkAX-9">
          <mxGeometry relative="1" as="geometry">
            <mxPoint x="1850" y="530" as="sourcePoint" />
            <mxPoint x="1639" y="410" as="targetPoint" />
            <Array as="points">
              <mxPoint x="1640" y="440" />
              <mxPoint x="1639" y="440" />
            </Array>
          </mxGeometry>
        </mxCell>
      </root>
    </mxGraphModel>
  </diagram>
</mxfile>
